<svg width="42" height="38" viewBox="0 0 42 38" fill="none" xmlns="http://www.w3.org/2000/svg">
<path fill-rule="evenodd" clip-rule="evenodd" d="M26.1603 3.25436L41.3036 29.5359C41.6368 30.3203 41.7827 30.9582 41.8243 31.6209C41.9076 33.1692 41.3661 34.6741 40.3037 35.8322C39.2414 36.9862 37.8042 37.6674 36.2419 37.75H5.74707C5.10134 37.7108 4.45562 37.5642 3.85155 37.3371C0.831227 36.1191 -0.626861 32.6923 0.602099 29.7217L15.8495 3.23578C16.3703 2.30475 17.1618 1.5017 18.1408 0.985612C20.9737 -0.585374 24.5772 0.446811 26.1603 3.25436ZM22.8067 20.5744C22.8067 21.5653 21.9943 22.3931 20.9945 22.3931C19.9947 22.3931 19.1615 21.5653 19.1615 20.5744V14.7343C19.1615 13.7414 19.9947 12.9383 20.9945 12.9383C21.9943 12.9383 22.8067 13.7414 22.8067 14.7343V20.5744ZM20.9945 29.4533C19.9947 29.4533 19.1615 28.6255 19.1615 27.6366C19.1615 26.6437 19.9947 25.8179 20.9945 25.8179C21.9943 25.8179 22.8067 26.6251 22.8067 27.6139C22.8067 28.6255 21.9943 29.4533 20.9945 29.4533Z" fill="#D85D5D"/>
</svg>
