<svg width="20" height="20" viewBox="0 0 20 20" fill="none" xmlns="http://www.w3.org/2000/svg">
<path d="M2.25 2.22242e-07C1.65326 2.22242e-07 1.08097 0.237053 0.65901 0.65901C0.237053 1.08097 0 1.65326 0 2.25V15.749C0 16.3457 0.237053 16.918 0.65901 17.34C1.08097 17.7619 1.65326 17.999 2.25 17.999H8.164L8.52 16.575L8.54 16.499H2.25C2.05109 16.499 1.86032 16.42 1.71967 16.2793C1.57902 16.1387 1.5 15.9479 1.5 15.749V2.249C1.5 2.05009 1.57902 1.85932 1.71967 1.71867C1.86032 1.57802 2.05109 1.499 2.25 1.499H15.749C15.9479 1.499 16.1387 1.57802 16.2793 1.71867C16.42 1.85932 16.499 2.05009 16.499 2.249V8.232C16.977 8.042 17.492 7.968 17.999 8.012V2.25C17.999 1.95444 17.9408 1.66178 17.8276 1.38873C17.7145 1.11568 17.5487 0.867601 17.3396 0.658656C17.1306 0.449711 16.8824 0.283999 16.6093 0.170984C16.3362 0.05797 16.0436 -0.000131137 15.748 2.22242e-07H2.248H2.25ZM12.354 11.999H8.249C8.05009 11.999 7.85932 12.078 7.71867 12.2187C7.57802 12.3593 7.499 12.5501 7.499 12.749C7.499 12.9479 7.57802 13.1387 7.71867 13.2793C7.85932 13.42 8.05009 13.499 8.249 13.499H10.854L12.354 11.999V11.999ZM5.749 5.249C5.749 5.51422 5.64364 5.76857 5.45611 5.95611C5.26857 6.14364 5.01422 6.249 4.749 6.249C4.48378 6.249 4.22943 6.14364 4.04189 5.95611C3.85436 5.76857 3.749 5.51422 3.749 5.249C3.749 4.98378 3.85436 4.72943 4.04189 4.54189C4.22943 4.35436 4.48378 4.249 4.749 4.249C5.01422 4.249 5.26857 4.35436 5.45611 4.54189C5.64364 4.72943 5.749 4.98378 5.749 5.249ZM8.249 4.499C8.05009 4.499 7.85932 4.57802 7.71867 4.71867C7.57802 4.85932 7.499 5.05009 7.499 5.249C7.499 5.44791 7.57802 5.63868 7.71867 5.77933C7.85932 5.91998 8.05009 5.999 8.249 5.999H13.749C13.9479 5.999 14.1387 5.91998 14.2793 5.77933C14.42 5.63868 14.499 5.44791 14.499 5.249C14.499 5.05009 14.42 4.85932 14.2793 4.71867C14.1387 4.57802 13.9479 4.499 13.749 4.499H8.249ZM8.249 8.249C8.15051 8.249 8.05298 8.2684 7.96199 8.30609C7.87099 8.34378 7.78831 8.39903 7.71867 8.46867C7.64903 8.53831 7.59378 8.62099 7.55609 8.71199C7.5184 8.80298 7.499 8.90051 7.499 8.999C7.499 9.09749 7.5184 9.19502 7.55609 9.28601C7.59378 9.37701 7.64903 9.45969 7.71867 9.52933C7.78831 9.59897 7.87099 9.65422 7.96199 9.69191C8.05298 9.7296 8.15051 9.749 8.249 9.749H13.749C13.8475 9.749 13.945 9.7296 14.036 9.69191C14.127 9.65422 14.2097 9.59897 14.2793 9.52933C14.349 9.45969 14.4042 9.37701 14.4419 9.28601C14.4796 9.19502 14.499 9.09749 14.499 8.999C14.499 8.90051 14.4796 8.80298 14.4419 8.71199C14.4042 8.62099 14.349 8.53831 14.2793 8.46867C14.2097 8.39903 14.127 8.34378 14.036 8.30609C13.945 8.2684 13.8475 8.249 13.749 8.249H8.249ZM4.75 10C5.01522 10 5.26957 9.89464 5.45711 9.70711C5.64464 9.51957 5.75 9.26522 5.75 9C5.75 8.73478 5.64464 8.48043 5.45711 8.29289C5.26957 8.10536 5.01522 8 4.75 8C4.48478 8 4.23043 8.10536 4.04289 8.29289C3.85536 8.48043 3.75 8.73478 3.75 9C3.75 9.26522 3.85536 9.51957 4.04289 9.70711C4.23043 9.89464 4.48478 10 4.75 10ZM5.75 12.75C5.75 13.0152 5.64464 13.2696 5.45711 13.4571C5.26957 13.6446 5.01522 13.75 4.75 13.75C4.48478 13.75 4.23043 13.6446 4.04289 13.4571C3.85536 13.2696 3.75 13.0152 3.75 12.75C3.75 12.4848 3.85536 12.2304 4.04289 12.0429C4.23043 11.8554 4.48478 11.75 4.75 11.75C5.01522 11.75 5.26957 11.8554 5.45711 12.0429C5.64464 12.2304 5.75 12.4848 5.75 12.75V12.75ZM16.1 9.67L10.198 15.571C9.85352 15.9152 9.60914 16.3466 9.491 16.819L9.034 18.649C8.834 19.446 9.556 20.167 10.352 19.968L12.182 19.51C12.6543 19.3921 13.0857 19.1481 13.43 18.804L19.33 12.9C19.7476 12.469 19.979 11.8911 19.9743 11.291C19.9695 10.6909 19.7289 10.1168 19.3045 9.69248C18.8801 9.2682 18.3059 9.02783 17.7058 9.02325C17.1057 9.01867 16.5278 9.25025 16.097 9.668L16.1 9.67Z" fill="#D85D5D"/>
</svg>
